<svg xmlns="http://www.w3.org/2000/svg" id="Livello_2" data-name="Livello 2" viewBox="0 0 462.94 191.94"><defs><style> .cls-1 { fill: #1a1a1a; stroke-width: 0px; } </style></defs><g id="Livello_2-2" data-name="Livello 2"><g><g><g><path class="cls-1" d="m391.79,90.96c5.72-4.82,7.2-14.93,6.03-16.39-1.16-1.45-11.17-2.69-17.27,1.63-.94.66-.78,1.58.26,1.46,3.44-.41,11.09-1.34,12.45.42,1.37,1.76-1.52,9.02-2.8,12.26-.39.98.45,1.37,1.33.63"></path><path class="cls-1" d="m461.35,42.18c-1.7-2.61-4.36-3.56-7.07-3.56-4.19,0-6.56,1.97-8.26,6.11h-.11s0-4.62,0-4.62c-.11-.47-.55-.82-1.08-.85h-5.63c-.61,0-1.11.44-1.16.99v30.24c0,.58.49,1.05,1.1,1.08h6.04c.65,0,1.17-.48,1.18-1.09v-16.28c0-2.04.11-3.88.96-5.73.68-1.46,2.04-2.42,3.51-2.42,4.19,0,3.79,4.84,3.79,8.14v16.41c.07.52.52.92,1.08.95h6.08c.6,0,1.1-.41,1.16-.95v-19.02c0-2.93,0-7-1.59-9.42"></path><path class="cls-1" d="m401.25,131.82l-6.01-2.3c-2.42-.92-4.04-1.76-4.86-2.53-.82-.77-1.23-1.82-1.23-3.15,0-3.32,2.47-4.99,7.4-4.99,2.83,0,5.6.41,8.33,1.23.82.26,1.41.38,1.77.38.67,0,1-.46,1-1.38v-2.07c0-.66-.13-1.16-.39-1.49-.26-.33-.69-.6-1.31-.81-3.19-1.18-6.45-1.76-9.79-1.76-4.22,0-7.62,1.02-10.22,3.07-2.6,2.05-3.89,4.73-3.89,8.06,0,5.06,2.85,8.64,8.56,10.74l6.55,2.45c2.11.77,3.56,1.53,4.36,2.3.79.77,1.19,1.76,1.19,2.99,0,1.84-.65,3.25-1.97,4.22-1.31.97-3.23,1.46-5.75,1.46-3.65,0-7.17-.54-10.56-1.61-.92-.31-1.57-.46-1.93-.46-.62,0-.93.46-.93,1.38v2.15c0,.67.12,1.15.35,1.46.23.31.65.59,1.27.84,3.44,1.43,7.33,2.15,11.64,2.15,4.52,0,8.15-1.07,10.87-3.22,2.72-2.15,4.09-5.04,4.09-8.67,0-2.56-.67-4.64-2-6.25-1.34-1.61-3.52-3-6.56-4.18"></path><path class="cls-1" d="m381.31,71.48c6.59-3.47,14.49-3.13,20.44-.04.73.38,1.43-.35,1.43-.98v-4.57c-.06-.61-.27-1.24-1.03-1.67-3.38-1.88-7.31-2.44-11.04-2.35l10.02-14.18c.93-1.28,1.45-2.08,1.46-2.69v-3.67c0-.63-.5-1.08-1.11-1.08h-19.35c-.6,0-1.09.43-1.09,1.08v4.28c0,.64.5,1.08,1.12,1.08h10.11s-11.61,16.5-11.61,16.5c-.71,1.06-.72,2.24-.72,2.94v4.34c0,.63.7,1.35,1.38.99"></path><path class="cls-1" d="m419.66,38.62c-8.47,0-13.17,7.18-13.17,16.42,0,9.17,4.65,16.54,13.17,16.54,8.2,0,13.39-7.18,13.39-16.23,0-9.36-4.7-16.73-13.39-16.73m0,26.84c-4.59,0-4.54-7.74-4.54-11.36s.27-9.42,4.59-9.42c1.86,0,3.17.81,3.83,2.87.77,2.37.87,5.37.87,7.86,0,3.81-.22,10.05-4.75,10.05"></path><path class="cls-1" d="m420.6,98.82c-1.56,0-2.77.45-3.66,1.36-.88.91-1.33,2.1-1.33,3.59s.44,2.68,1.33,3.58c.88.91,2.1,1.36,3.66,1.36,1.55,0,2.77-.45,3.65-1.36.88-.91,1.32-2.1,1.32-3.58,0-1.48-.44-2.68-1.32-3.59-.89-.91-2.1-1.36-3.65-1.36"></path><path class="cls-1" d="m423.08,114.6h-4.95c-1.12,0-1.68.52-1.68,1.56v36.42c0,1.04.56,1.56,1.68,1.56h4.95c1.12,0,1.68-.52,1.68-1.56v-36.42c0-1.04-.56-1.56-1.68-1.56"></path><path class="cls-1" d="m289.25,51.19c-3.39.37-7.82.62-10.99,1.98-3.67,1.55-6.24,4.7-6.24,9.34,0,5.94,3.83,8.91,8.75,8.91,4.16,0,6.43-.96,9.64-4.15,1.06,1.5,1.41,2.23,3.35,3.81.44.23,1,.21,1.38-.13h.01c1.17-1,3.29-2.8,4.49-3.78.48-.38.39-1,.02-1.52-1.07-1.44-2.21-2.62-2.21-5.29v-8.9c0-3.77.27-7.24-2.57-9.83-2.24-2.1-5.96-2.84-8.81-2.84-5.57,0-11.78,2.03-13.08,8.75-.14.71.4,1.09.87,1.19l5.67.6c.53-.03.91-.54,1.01-1.05.49-2.31,2.47-3.43,4.7-3.43,1.2,0,2.57.43,3.28,1.49.82,1.17.71,2.78.71,4.14v.74Zm-1.09,11.87c-.93,1.61-2.41,2.6-4.05,2.6-2.24,0-3.55-1.67-3.55-4.14,0-4.87,4.47-5.75,8.7-5.75v1.24c0,2.23.05,4.08-1.09,6.06"></path><path class="cls-1" d="m320.66,112.95c-5.14,0-10.27,1.79-15.4,5.38-1.71-3.59-4.98-5.38-9.8-5.38-4.72,0-9.57,1.67-14.55,5l-.46-2.42c-.1-.56-.3-.93-.58-1.14-.29-.2-.69-.3-1.2-.3h-3.42c-1.04,0-1.55.51-1.55,1.52v35.37c0,1.01.52,1.52,1.55,1.52h4.59c1.04,0,1.55-.51,1.55-1.52v-28.63c3.63-2.22,7.42-3.33,11.36-3.33,2.13,0,3.68.61,4.67,1.82.99,1.21,1.48,3.08,1.48,5.61v24.54c0,1.01.52,1.52,1.55,1.52h4.59c1.04,0,1.56-.51,1.56-1.52v-27.42c0-.4-.03-.78-.08-1.14,3.84-2.28,7.65-3.41,11.43-3.41,2.13,0,3.68.61,4.67,1.82.99,1.21,1.48,3.08,1.48,5.61v24.54c0,1.01.52,1.52,1.56,1.52h4.59c1.03,0,1.55-.51,1.55-1.52v-26.66c0-3.64-.96-6.44-2.88-8.41-1.92-1.97-4.67-2.95-8.25-2.95"></path><path class="cls-1" d="m373.41,114.6h-4.55c-1.03,0-1.54.51-1.54,1.52v28.33c-3.75,2.42-7.47,3.64-11.17,3.64-2.36,0-4.08-.65-5.16-1.93-1.08-1.29-1.61-3.3-1.61-6.02v-24.01c0-1.01-.52-1.52-1.54-1.52h-4.54c-1.03,0-1.54.51-1.54,1.52v26.44c0,3.69.98,6.54,2.93,8.56,1.95,2.02,4.75,3.03,8.4,3.03,5.03,0,9.94-1.74,14.71-5.23l.54,2.65c.1.56.3.93.58,1.14.28.2.68.3,1.19.3h3.31c1.03,0,1.54-.51,1.54-1.52v-35.38c0-1.01-.51-1.52-1.54-1.52"></path><path class="cls-1" d="m461.91,146.51c-.21,0-.61.08-1.19.23-2.54.73-4.91,1.09-7.14,1.09-4.28,0-7.41-1.1-9.39-3.31-1.98-2.21-2.97-5.67-2.97-10.39v-1.01c0-4.83.98-8.35,2.93-10.55,1.95-2.21,5.15-3.31,9.59-3.31,2.22,0,4.41.31,6.58.93.58.16,1,.23,1.27.23.69,0,1.03-.52,1.03-1.56v-2.1c0-.73-.12-1.25-.36-1.56-.24-.31-.64-.57-1.23-.78-2.75-.99-5.55-1.48-8.4-1.48-6.23,0-11.05,1.8-14.47,5.41-3.41,3.61-5.11,8.71-5.11,15.3,0,6.64,1.65,11.72,4.96,15.22,3.3,3.5,8.07,5.26,14.31,5.26,3.43,0,6.44-.55,9.04-1.64.63-.26,1.06-.54,1.27-.86.21-.31.32-.8.32-1.48v-2.1c0-1.04-.34-1.56-1.03-1.56"></path><path class="cls-1" d="m304.62,71.57h5.91c.63,0,1.14-.48,1.14-1.09v-16.03c0-3.5-.16-8.33,4.09-8.33,4.2,0,3.65,4.96,3.65,8.33v16.03c0,.58.47,1.05,1.07,1.08h5.91c.63,0,1.14-.48,1.14-1.09v-16.03c0-1.72-.06-4.26.55-5.79.61-1.53,2.1-2.48,3.53-2.48,1.71,0,3.04.57,3.48,2.61.28,1.21.17,4.39.17,5.66v16.03c0,.58.47,1.05,1.06,1.08h5.91c.63,0,1.14-.48,1.14-1.09v-19.08c0-3.25.39-6.93-1.49-9.48-1.66-2.29-4.36-3.31-6.85-3.31-3.48,0-6.74,1.78-8.17,5.6-1.66-3.82-3.98-5.6-7.68-5.6-3.64,0-6.35,1.78-7.78,5.6h-.11s0-3.95,0-3.95c-.04-.55-.5-.99-1.07-1.02h-5.51c-.63,0-1.14.49-1.14,1.09v30.23c.04.54.49.96,1.05,1"></path><path class="cls-1" d="m365.91,51.19c-3.39.37-7.83.62-11,1.98-3.67,1.55-6.24,4.7-6.24,9.34,0,5.94,3.83,8.91,8.75,8.91,4.16,0,6.43-.96,9.64-4.15,1.06,1.5,1.41,2.23,3.35,3.81.44.23,1,.21,1.38-.13h.01c1.17-1,3.29-2.8,4.49-3.78.48-.38.39-1,.02-1.52-1.07-1.44-2.21-2.62-2.21-5.3v-8.9c0-3.77.27-7.24-2.57-9.83-2.24-2.1-5.96-2.84-8.81-2.84-5.56,0-11.77,2.03-13.08,8.75-.14.71.4,1.09.87,1.19l5.67.6c.53-.03.91-.54,1.01-1.05.49-2.31,2.47-3.43,4.7-3.43,1.2,0,2.57.43,3.28,1.49.82,1.17.71,2.78.71,4.14v.74Zm0,5.81c0,2.23.05,4.08-1.1,6.06-.93,1.61-2.41,2.6-4.05,2.6-2.24,0-3.55-1.67-3.55-4.14,0-4.87,4.47-5.75,8.7-5.75v1.24Z"></path><path class="cls-1" d="m299.02,76.49c13.07,11.34,30.34,18.15,49.52,18.15,13.69,0,29.58-4.13,40.54-11.91,1.81-1.29.26-3.22-1.6-2.46-12.29,5.01-25.64,7.43-37.79,7.43-18.01,0-35.45-4.75-49.55-12.63-1.23-.69-2.15.53-1.12,1.42"></path></g><rect class="cls-1" x="228.6" width="3.65" height="191.4"></rect></g><path class="cls-1" d="m145.56,46.77c-1.53-.95-3.15-1.76-4.83-2.42-3.39-1.32-6.96-1.99-10.62-1.99-3.94,0-7.78.77-11.38,2.3-1.02.43-2.01.93-2.97,1.47-5.72,2.34-12.38,1.03-16.78-3.37-2.92-2.92-4.53-6.8-4.53-10.92,0-4.13,1.61-8.01,4.53-10.92,6.02-6.02,15.82-6.02,21.85,0,1.2,1.2,2.17,2.56,2.91,4.03h-22.65s0,13.8,0,13.8h38.07s0-6.9,0-6.9c0-3.8-.72-7.5-2.14-11-1.47-3.63-3.63-6.89-6.42-9.68-2.79-2.79-6.05-4.95-9.68-6.42-3.5-1.42-7.21-2.14-11-2.14-3.79,0-7.5.72-11,2.14-3.63,1.47-6.89,3.63-9.68,6.42-.59.59-1.14,1.2-1.67,1.82-.53-.63-1.08-1.24-1.67-1.82-2.79-2.79-6.05-4.95-9.68-6.42-3.5-1.42-7.21-2.14-11-2.14-3.79,0-7.5.72-11,2.14-3.63,1.47-6.89,3.63-9.68,6.42-2.79,2.79-4.95,6.05-6.42,9.68-1.42,3.5-2.14,7.21-2.14,11v46.08s13.8,0,13.8,0V31.83c0-4.13,1.61-8.01,4.52-10.92,2.92-2.92,6.8-4.52,10.92-4.52,4.13,0,8.01,1.61,10.92,4.52,6.02,6.02,6.02,15.82,0,21.85-1.94,1.94-4.35,3.32-6.98,4.02-1.42.11-2.8.44-4.11,1.01-1.54.67-2.93,1.61-4.11,2.82-1.18,1.2-2.1,2.59-2.74,4.14-.66,1.6-1,3.3-1,5.04,0,3,1.03,5.93,2.91,8.25l.23.29,1.92,1.91,41.35,41.35,9.75-9.76-41.36-41.36-.15-.15c5.32-1.23,10.17-3.93,14.04-7.81.59-.59,1.14-1.2,1.67-1.82.53.63,1.08,1.24,1.67,1.82,2.19,2.19,4.68,4,7.42,5.39,2.07,1.05,4.25,1.85,6.5,2.38-1.51,3.59-2.28,7.4-2.28,11.32,0,3.94.77,7.77,2.3,11.38,1.47,3.48,3.58,6.61,6.27,9.29,2.68,2.68,5.81,4.79,9.29,6.26,3.61,1.53,7.44,2.3,11.38,2.3,3.94,0,7.77-.77,11.38-2.3,3.48-1.47,6.61-3.58,9.29-6.26,2.68-2.68,4.79-5.81,6.26-9.29,1.53-3.61,2.3-7.44,2.3-11.38V.6s-13.8,0-13.8,0v46.17Zm-15.45,40.28c-8.52,0-15.45-6.93-15.45-15.45,0-5.57,2.96-10.46,7.39-13.17.08-.04.16-.07.24-.11v-.03c2.28-1.35,4.96-2.14,7.81-2.14,1.94,0,3.83.35,5.61,1.05,5.98,2.33,9.84,7.98,9.84,14.4,0,8.52-6.93,15.45-15.45,15.45Zm-72.64,36.01h-13.82c-4.86,9.5-14.71,30.62-18.56,38.27h10.5s3.6-7.89,3.6-7.89h10.4s.45,7.89.45,7.89h10.2s-2.77-38.27-2.77-38.27Zm-15.07,22.39c2.58-5.61,4.91-11.12,6.58-15.55h.23c-.08,3.94.18,9.79.45,15.55h-7.26Zm-17.81-22.39l-7.63,16.27c-2.08,4.46-4.2,8.89-5.8,13.17h-.19c.15-4.13-.12-8.42-.26-13.35l-.49-16.08H0s3.21,38.27,3.21,38.27h12.25s20.09-38.27,20.09-38.27h-10.97Zm67.16,30.52h-15.73s6.49-30.52,6.49-30.52h-10.28s-8.12,38.27-8.12,38.27h25s2.65-7.75,2.65-7.75Zm20.87-30.52h-10.28s-8.12,38.27-8.12,38.27h25s2.65-7.75,2.65-7.75h-15.73s6.49-30.52,6.49-30.52Zm72.48,0c-2.9,4.41-7.41,11.8-9.75,15.66-.72-3.71-2.19-10.35-3.26-15.66h-10.61s6.81,22.67,6.81,22.67c.19.58.09,1.01.02,1.5l-3.01,14.1h10.3s2.84-13.34,2.84-13.34c.13-.63.34-1.05.62-1.43l16.88-23.51h-10.83Zm-60.76,38.27h26.99s2.62-7.67,2.62-7.67h-18.1s1.71-8.11,1.71-8.11h15.35s1.63-7.72,1.63-7.72h-15.35s1.51-7.04,1.51-7.04h15.97s1.65-7.72,1.65-7.72h-25.86s-8.12,38.27-8.12,38.27Zm-74.83,30.45h9.58v-2.26h-6.73s0-4.29,0-4.29h5.3s0-2.17,0-2.17h-5.3s0-4.21,0-4.21h6.73v-2.25h-9.58s0,15.18,0,15.18Zm25.91-7.48c-.33-.31-.7-.56-1.12-.76-.42-.2-.85-.37-1.29-.53-.44-.15-.87-.29-1.29-.43-.42-.13-.79-.28-1.12-.45-.33-.17-.59-.37-.79-.61-.2-.24-.3-.54-.3-.89,0-.28.05-.54.15-.77.1-.23.25-.44.45-.6.2-.17.44-.3.74-.39.29-.09.63-.14,1.02-.14.43,0,.81.05,1.13.16.32.11.6.23.83.36.24.13.44.25.62.36.17.11.33.16.47.16s.26-.03.36-.09c.1-.06.19-.17.27-.33l.69-1.33c-.53-.5-1.18-.9-1.93-1.18-.76-.28-1.58-.42-2.48-.42-.79,0-1.5.12-2.11.37-.62.25-1.14.57-1.56.98-.42.41-.75.87-.97,1.4-.22.52-.33,1.06-.33,1.62,0,.69.1,1.28.3,1.75.2.47.46.87.79,1.18.33.31.7.57,1.12.77.42.2.85.36,1.28.5.43.14.86.27,1.28.39.42.12.79.26,1.12.44.33.17.59.38.79.64.2.25.3.58.3.98,0,.71-.22,1.26-.66,1.64-.44.38-1.06.57-1.87.57-.52,0-.97-.07-1.35-.22-.37-.14-.7-.3-.98-.48-.28-.17-.52-.33-.72-.48-.2-.14-.39-.21-.57-.21-.13,0-.25.03-.36.1-.11.07-.2.15-.28.25l-.82,1.35c.29.3.63.57,1,.82.37.25.78.45,1.21.63.43.18.88.31,1.35.4.47.09.94.14,1.43.14.84,0,1.59-.13,2.24-.38.65-.26,1.2-.61,1.65-1.05.45-.44.79-.97,1.03-1.56.23-.6.35-1.24.35-1.93,0-.63-.1-1.17-.3-1.61-.2-.44-.46-.81-.79-1.12Zm-43.58,7.48h2.85s0-6.18,0-6.18h5.68s0-2.26,0-2.26h-5.68s0-4.49,0-4.49h6.73v-2.25h-9.57s0,15.18,0,15.18Zm51.43-12.86h4.59s0,12.86,0,12.86h2.82s0-12.86,0-12.86h4.57v-2.32h-11.98v2.32Zm74.29-2.32h-2.82s0,15.18,0,15.18h8.9v-2.33h-6.08s0-12.85,0-12.85Zm-54.29,15.18h2.83v-15.18s-2.84,0-2.84,0v15.18Zm22.57-14.98c-.16.13-.27.28-.34.44l-3.56,9.26c-.24.62-.44,1.33-.6,2.13-.1-.4-.2-.78-.31-1.14-.11-.36-.22-.69-.34-.99l-3.57-9.26c-.08-.19-.19-.34-.35-.46-.15-.12-.35-.18-.6-.18h-2.28l6.13,15.18h2.55s6.13-15.18,6.13-15.18h-2.28c-.24,0-.44.07-.6.2Zm13.06-.2l-5.96,15.18h2.19c.24,0,.44-.07.6-.2.16-.13.27-.28.33-.44l1.13-3.1h6.29s1.13,3.1,1.13,3.1c.07.18.18.33.34.46.16.12.36.18.6.18h2.18l-5.96-15.18h-2.89Zm-.98,9.45l1.85-5.03c.09-.23.18-.5.28-.81.09-.31.19-.64.29-1,.1.36.2.69.3.99.1.3.19.57.28.79l1.85,5.05h-4.84Z"></path></g></g></svg>